<svg xmlns="http://www.w3.org/2000/svg" viewBox="0 0 800 200" role="img" aria-label="ZentroTECH">
  <title>ZentroTECH</title>
  <defs>
    <linearGradient id="zthl-tech" x1="0" y1="0" x2="1" y2="0">
      <stop offset="0%" stop-color="#6366f1"/>
      <stop offset="100%" stop-color="#ec4899"/>
    </linearGradient>
  </defs>

  <!-- mark in dark mono for light backgrounds -->
  <g transform="translate(0,0)">
    <path d="M100 18 L168 58 L168 142 L100 182 L32 142 L32 58 Z"
          fill="none" stroke="#0a0a0f" stroke-opacity="0.55" stroke-width="3" stroke-linejoin="round"/>
    <g fill="none" stroke="#0a0a0f" stroke-width="14" stroke-linecap="round" stroke-linejoin="round">
      <path d="M58 70 L142 70"/>
      <path d="M138 74 L108 104 L92 104 L62 134"/>
      <path d="M58 138 L142 138"/>
    </g>
    <g fill="#0a0a0f">
      <circle cx="58" cy="70" r="5"/>
      <circle cx="142" cy="70" r="5"/>
      <circle cx="58" cy="138" r="5"/>
      <circle cx="142" cy="138" r="5"/>
      <circle cx="100" cy="104" r="4"/>
    </g>
  </g>

  <!-- wordmark, dark -->
  <g transform="translate(220,0)">
    <text x="0" y="128"
          font-family="ui-sans-serif, system-ui, -apple-system, 'Segoe UI', Roboto, Helvetica, Arial, sans-serif"
          font-size="84"
          font-weight="800"
          letter-spacing="6"
          fill="#0a0a0f">ZENTRO<tspan fill="url(#zthl-tech)">TECH</tspan></text>
    <line x1="2" y1="148" x2="180" y2="148" stroke="#0a0a0f" stroke-opacity="0.25" stroke-width="2"/>
    <line x1="184" y1="148" x2="540" y2="148" stroke="url(#zthl-tech)" stroke-opacity="0.7" stroke-width="2"/>
    <circle cx="184" cy="148" r="3" fill="#ec4899"/>
  </g>
</svg>
