<?xml version="1.0" encoding="UTF-8"?>
<svg xmlns="http://www.w3.org/2000/svg" width="1200" height="630" viewBox="0 0 1200 630" role="img" aria-label="AI Consultancy in Bangalore — ZentroTECH">
  <defs>
    <linearGradient id="bgGrad" x1="0" y1="0" x2="1" y2="1">
      <stop offset="0%" stop-color="#0a0a0f"/>
      <stop offset="100%" stop-color="#1a0f2e"/>
    </linearGradient>
    <radialGradient id="auroraIndigo" cx="0.5" cy="0.5" r="0.5">
      <stop offset="0%" stop-color="#6366f1" stop-opacity="0.85"/>
      <stop offset="100%" stop-color="#6366f1" stop-opacity="0"/>
    </radialGradient>
    <radialGradient id="auroraViolet" cx="0.5" cy="0.5" r="0.5">
      <stop offset="0%" stop-color="#8b5cf6" stop-opacity="0.75"/>
      <stop offset="100%" stop-color="#8b5cf6" stop-opacity="0"/>
    </radialGradient>
    <radialGradient id="auroraPink" cx="0.5" cy="0.5" r="0.5">
      <stop offset="0%" stop-color="#ec4899" stop-opacity="0.65"/>
      <stop offset="100%" stop-color="#ec4899" stop-opacity="0"/>
    </radialGradient>
    <linearGradient id="wordmarkGrad" x1="0" y1="0" x2="1" y2="0">
      <stop offset="0%" stop-color="#06b6d4"/>
      <stop offset="40%" stop-color="#6366f1"/>
      <stop offset="70%" stop-color="#8b5cf6"/>
      <stop offset="100%" stop-color="#ec4899"/>
    </linearGradient>
    <linearGradient id="pinGrad" x1="0" y1="0" x2="0" y2="1">
      <stop offset="0%" stop-color="#ec4899"/>
      <stop offset="100%" stop-color="#8b5cf6"/>
    </linearGradient>
    <filter id="glow" x="-50%" y="-50%" width="200%" height="200%">
      <feGaussianBlur stdDeviation="6" result="blur"/>
      <feMerge>
        <feMergeNode in="blur"/>
        <feMergeNode in="SourceGraphic"/>
      </feMerge>
    </filter>
    <filter id="noise" x="0" y="0" width="100%" height="100%">
      <feTurbulence type="fractalNoise" baseFrequency="0.9" numOctaves="2" seed="11"/>
      <feColorMatrix values="0 0 0 0 1  0 0 0 0 1  0 0 0 0 1  0 0 0 0.06 0"/>
    </filter>
  </defs>

  <rect width="1200" height="630" fill="url(#bgGrad)"/>

  <!-- Aurora upper-right -->
  <g opacity="0.9">
    <ellipse cx="1000" cy="120" rx="420" ry="320" fill="url(#auroraViolet)"/>
    <ellipse cx="1100" cy="220" rx="340" ry="260" fill="url(#auroraIndigo)"/>
    <ellipse cx="860" cy="60" rx="300" ry="220" fill="url(#auroraPink)"/>
  </g>

  <!-- Subtle India outline (background, simplified path) -->
  <g transform="translate(720,170) scale(0.9)" opacity="0.18" fill="none" stroke="#8b5cf6" stroke-width="2">
    <path d="M120 20 L160 30 L200 25 L240 50 L260 80 L280 70 L320 90
             L340 130 L320 170 L300 220 L280 260 L260 300 L230 340
             L200 360 L170 380 L150 360 L130 330 L110 290 L90 250
             L70 210 L60 170 L70 130 L90 90 L100 60 Z"/>
    <path d="M170 380 L190 410 L210 440 L200 460 L180 450 Z"/>
  </g>

  <!-- Brand mark Z -->
  <g transform="translate(72,72)">
    <rect x="0" y="0" width="56" height="56" rx="14" fill="none" stroke="url(#wordmarkGrad)" stroke-width="2"/>
    <text x="28" y="40" font-family="system-ui, -apple-system, sans-serif" font-weight="800" font-size="34" text-anchor="middle" fill="url(#wordmarkGrad)">Z</text>
  </g>
  <text x="148" y="108" font-family="system-ui, -apple-system, sans-serif" font-weight="600" font-size="18" letter-spacing="4" fill="rgba(255,255,255,0.55)">ZENTROTECH</text>

  <!-- Map pin glyph (right side) -->
  <g transform="translate(900,260)" filter="url(#glow)">
    <path d="M0 -100 C 56 -100 90 -60 90 -16 C 90 50 0 140 0 140 C 0 140 -90 50 -90 -16 C -90 -60 -56 -100 0 -100 Z"
          fill="url(#pinGrad)" opacity="0.92"/>
    <circle cx="0" cy="-16" r="32" fill="#0a0a0f"/>
    <circle cx="0" cy="-16" r="16" fill="#06b6d4"/>
  </g>
  <!-- Pulse rings under pin -->
  <g transform="translate(900,420)" opacity="0.6">
    <ellipse rx="80" ry="14" fill="none" stroke="#ec4899" stroke-width="1.5" opacity="0.7"/>
    <ellipse rx="120" ry="22" fill="none" stroke="#8b5cf6" stroke-width="1" opacity="0.4"/>
  </g>

  <!-- Eyebrow -->
  <text x="72" y="234" font-family="system-ui, -apple-system, sans-serif" font-weight="600" font-size="20" letter-spacing="6" fill="#06b6d4">LOCATION</text>

  <!-- Headline (two lines) -->
  <text x="72" y="324" font-family="system-ui, -apple-system, sans-serif" font-weight="900" font-size="76" letter-spacing="-2" fill="#ffffff" filter="url(#glow)">AI Consultancy</text>
  <text x="72" y="404" font-family="system-ui, -apple-system, sans-serif" font-weight="900" font-size="76" letter-spacing="-2" fill="url(#wordmarkGrad)" filter="url(#glow)">in Bangalore</text>

  <!-- Subhead -->
  <text x="72" y="460" font-family="system-ui, -apple-system, sans-serif" font-weight="500" font-size="28" fill="rgba(255,255,255,0.75)">Headquartered in India&apos;s Silicon Valley.</text>

  <!-- Bottom meta -->
  <g transform="translate(72,548)">
    <circle cx="6" cy="-8" r="6" fill="#ec4899"/>
    <text x="22" y="-3" font-family="system-ui, -apple-system, sans-serif" font-weight="500" font-size="18" fill="rgba(255,255,255,0.6)">Bangalore HQ  ·  12.97° N, 77.59° E</text>
  </g>
  <text x="1128" y="545" text-anchor="end" font-family="system-ui, -apple-system, sans-serif" font-weight="500" font-size="18" fill="rgba(255,255,255,0.45)">zentrotech.ai / bangalore</text>

  <rect width="1200" height="630" filter="url(#noise)" opacity="0.7"/>
</svg>
