<?xml version="1.0" encoding="UTF-8"?>
<svg xmlns="http://www.w3.org/2000/svg" width="1200" height="630" viewBox="0 0 1200 630" role="img" aria-label="Insights from the AI Frontier — ZentroTECH">
  <defs>
    <linearGradient id="bgGrad" x1="0" y1="0" x2="1" y2="1">
      <stop offset="0%" stop-color="#0a0a0f"/>
      <stop offset="100%" stop-color="#1a0f2e"/>
    </linearGradient>
    <radialGradient id="auroraIndigo" cx="0.5" cy="0.5" r="0.5">
      <stop offset="0%" stop-color="#6366f1" stop-opacity="0.85"/>
      <stop offset="100%" stop-color="#6366f1" stop-opacity="0"/>
    </radialGradient>
    <radialGradient id="auroraViolet" cx="0.5" cy="0.5" r="0.5">
      <stop offset="0%" stop-color="#8b5cf6" stop-opacity="0.75"/>
      <stop offset="100%" stop-color="#8b5cf6" stop-opacity="0"/>
    </radialGradient>
    <radialGradient id="auroraPink" cx="0.5" cy="0.5" r="0.5">
      <stop offset="0%" stop-color="#ec4899" stop-opacity="0.6"/>
      <stop offset="100%" stop-color="#ec4899" stop-opacity="0"/>
    </radialGradient>
    <linearGradient id="wordmarkGrad" x1="0" y1="0" x2="1" y2="0">
      <stop offset="0%" stop-color="#06b6d4"/>
      <stop offset="40%" stop-color="#6366f1"/>
      <stop offset="70%" stop-color="#8b5cf6"/>
      <stop offset="100%" stop-color="#ec4899"/>
    </linearGradient>
    <linearGradient id="edgeGrad" x1="0" y1="0" x2="1" y2="1">
      <stop offset="0%" stop-color="#06b6d4" stop-opacity="0.7"/>
      <stop offset="100%" stop-color="#8b5cf6" stop-opacity="0.7"/>
    </linearGradient>
    <radialGradient id="nodeGlow" cx="0.5" cy="0.5" r="0.5">
      <stop offset="0%" stop-color="#ffffff" stop-opacity="0.95"/>
      <stop offset="60%" stop-color="#ec4899" stop-opacity="0.6"/>
      <stop offset="100%" stop-color="#ec4899" stop-opacity="0"/>
    </radialGradient>
    <filter id="glow" x="-50%" y="-50%" width="200%" height="200%">
      <feGaussianBlur stdDeviation="6" result="blur"/>
      <feMerge>
        <feMergeNode in="blur"/>
        <feMergeNode in="SourceGraphic"/>
      </feMerge>
    </filter>
    <filter id="softGlow" x="-50%" y="-50%" width="200%" height="200%">
      <feGaussianBlur stdDeviation="3" result="blur"/>
      <feMerge>
        <feMergeNode in="blur"/>
        <feMergeNode in="SourceGraphic"/>
      </feMerge>
    </filter>
    <filter id="noise" x="0" y="0" width="100%" height="100%">
      <feTurbulence type="fractalNoise" baseFrequency="0.9" numOctaves="2" seed="17"/>
      <feColorMatrix values="0 0 0 0 1  0 0 0 0 1  0 0 0 0 1  0 0 0 0.06 0"/>
    </filter>
  </defs>

  <rect width="1200" height="630" fill="url(#bgGrad)"/>

  <!-- Aurora upper-right -->
  <g opacity="0.9">
    <ellipse cx="1000" cy="120" rx="420" ry="320" fill="url(#auroraViolet)"/>
    <ellipse cx="1100" cy="220" rx="340" ry="260" fill="url(#auroraIndigo)"/>
    <ellipse cx="860" cy="60" rx="300" ry="220" fill="url(#auroraPink)"/>
  </g>

  <!-- Neural network illustration (right side) -->
  <g transform="translate(820,315)" filter="url(#softGlow)">
    <!-- Edges (input -> hidden -> output) -->
    <g stroke="url(#edgeGrad)" stroke-width="1" opacity="0.55">
      <!-- input col x=-200 to hidden1 x=-60 -->
      <line x1="-200" y1="-160" x2="-60" y2="-200"/>
      <line x1="-200" y1="-160" x2="-60" y2="-100"/>
      <line x1="-200" y1="-160" x2="-60" y2="0"/>
      <line x1="-200" y1="-160" x2="-60" y2="100"/>
      <line x1="-200" y1="-160" x2="-60" y2="200"/>
      <line x1="-200" y1="-60" x2="-60" y2="-200"/>
      <line x1="-200" y1="-60" x2="-60" y2="-100"/>
      <line x1="-200" y1="-60" x2="-60" y2="0"/>
      <line x1="-200" y1="-60" x2="-60" y2="100"/>
      <line x1="-200" y1="-60" x2="-60" y2="200"/>
      <line x1="-200" y1="60" x2="-60" y2="-200"/>
      <line x1="-200" y1="60" x2="-60" y2="-100"/>
      <line x1="-200" y1="60" x2="-60" y2="0"/>
      <line x1="-200" y1="60" x2="-60" y2="100"/>
      <line x1="-200" y1="60" x2="-60" y2="200"/>
      <line x1="-200" y1="160" x2="-60" y2="-200"/>
      <line x1="-200" y1="160" x2="-60" y2="-100"/>
      <line x1="-200" y1="160" x2="-60" y2="0"/>
      <line x1="-200" y1="160" x2="-60" y2="100"/>
      <line x1="-200" y1="160" x2="-60" y2="200"/>
      <!-- hidden1 -> hidden2 x=80 -->
      <line x1="-60" y1="-200" x2="80" y2="-160"/>
      <line x1="-60" y1="-200" x2="80" y2="-60"/>
      <line x1="-60" y1="-200" x2="80" y2="60"/>
      <line x1="-60" y1="-100" x2="80" y2="-160"/>
      <line x1="-60" y1="-100" x2="80" y2="-60"/>
      <line x1="-60" y1="-100" x2="80" y2="60"/>
      <line x1="-60" y1="-100" x2="80" y2="160"/>
      <line x1="-60" y1="0" x2="80" y2="-160"/>
      <line x1="-60" y1="0" x2="80" y2="-60"/>
      <line x1="-60" y1="0" x2="80" y2="60"/>
      <line x1="-60" y1="0" x2="80" y2="160"/>
      <line x1="-60" y1="100" x2="80" y2="-60"/>
      <line x1="-60" y1="100" x2="80" y2="60"/>
      <line x1="-60" y1="100" x2="80" y2="160"/>
      <line x1="-60" y1="200" x2="80" y2="-60"/>
      <line x1="-60" y1="200" x2="80" y2="60"/>
      <line x1="-60" y1="200" x2="80" y2="160"/>
      <!-- hidden2 -> output x=200 -->
      <line x1="80" y1="-160" x2="200" y2="-80"/>
      <line x1="80" y1="-60" x2="200" y2="-80"/>
      <line x1="80" y1="60" x2="200" y2="-80"/>
      <line x1="80" y1="-160" x2="200" y2="80"/>
      <line x1="80" y1="-60" x2="200" y2="80"/>
      <line x1="80" y1="60" x2="200" y2="80"/>
      <line x1="80" y1="160" x2="200" y2="80"/>
    </g>

    <!-- Nodes -->
    <g>
      <!-- Input layer -->
      <circle cx="-200" cy="-160" r="8" fill="#06b6d4"/>
      <circle cx="-200" cy="-60"  r="8" fill="#06b6d4"/>
      <circle cx="-200" cy="60"   r="8" fill="#06b6d4"/>
      <circle cx="-200" cy="160"  r="8" fill="#06b6d4"/>
      <!-- Hidden 1 -->
      <circle cx="-60" cy="-200" r="9" fill="#6366f1"/>
      <circle cx="-60" cy="-100" r="9" fill="#6366f1"/>
      <circle cx="-60" cy="0"    r="9" fill="#6366f1"/>
      <circle cx="-60" cy="100"  r="9" fill="#6366f1"/>
      <circle cx="-60" cy="200"  r="9" fill="#6366f1"/>
      <!-- Hidden 2 -->
      <circle cx="80" cy="-160" r="9" fill="#8b5cf6"/>
      <circle cx="80" cy="-60"  r="9" fill="#8b5cf6"/>
      <circle cx="80" cy="60"   r="9" fill="#8b5cf6"/>
      <circle cx="80" cy="160"  r="9" fill="#8b5cf6"/>
      <!-- Output -->
      <circle cx="200" cy="-80" r="14" fill="url(#nodeGlow)"/>
      <circle cx="200" cy="80"  r="14" fill="url(#nodeGlow)"/>
    </g>
  </g>

  <!-- Brand mark Z -->
  <g transform="translate(72,72)">
    <rect x="0" y="0" width="56" height="56" rx="14" fill="none" stroke="url(#wordmarkGrad)" stroke-width="2"/>
    <text x="28" y="40" font-family="system-ui, -apple-system, sans-serif" font-weight="800" font-size="34" text-anchor="middle" fill="url(#wordmarkGrad)">Z</text>
  </g>
  <text x="148" y="108" font-family="system-ui, -apple-system, sans-serif" font-weight="600" font-size="18" letter-spacing="4" fill="rgba(255,255,255,0.55)">ZENTROTECH</text>

  <!-- Eyebrow -->
  <text x="72" y="234" font-family="system-ui, -apple-system, sans-serif" font-weight="600" font-size="20" letter-spacing="6" fill="#06b6d4">INSIGHTS</text>

  <!-- Headline -->
  <text x="72" y="318" font-family="system-ui, -apple-system, sans-serif" font-weight="900" font-size="72" letter-spacing="-2" fill="#ffffff" filter="url(#glow)">Insights from the</text>
  <text x="72" y="394" font-family="system-ui, -apple-system, sans-serif" font-weight="900" font-size="72" letter-spacing="-2" fill="url(#wordmarkGrad)" filter="url(#glow)">AI Frontier.</text>

  <!-- Subhead -->
  <text x="72" y="450" font-family="system-ui, -apple-system, sans-serif" font-weight="500" font-size="28" fill="rgba(255,255,255,0.75)">Field notes on agents, automation &amp; what comes next.</text>

  <!-- Bottom meta -->
  <g transform="translate(72,548)">
    <circle cx="6" cy="-8" r="6" fill="#8b5cf6"/>
    <text x="22" y="-3" font-family="system-ui, -apple-system, sans-serif" font-weight="500" font-size="18" fill="rgba(255,255,255,0.6)">Essays  ·  Tutorials  ·  Case studies</text>
  </g>
  <text x="1128" y="545" text-anchor="end" font-family="system-ui, -apple-system, sans-serif" font-weight="500" font-size="18" fill="rgba(255,255,255,0.45)">zentrotech.ai / insights</text>

  <rect width="1200" height="630" filter="url(#noise)" opacity="0.7"/>
</svg>
