<?xml version="1.0" encoding="UTF-8"?>
<svg xmlns="http://www.w3.org/2000/svg" width="1200" height="630" viewBox="0 0 1200 630" role="img" aria-label="ZentroTECH AI Consultancy Services">
  <defs>
    <linearGradient id="bgGrad" x1="0" y1="0" x2="1" y2="1">
      <stop offset="0%" stop-color="#0a0a0f"/>
      <stop offset="100%" stop-color="#1a0f2e"/>
    </linearGradient>
    <radialGradient id="auroraIndigo" cx="0.5" cy="0.5" r="0.5">
      <stop offset="0%" stop-color="#6366f1" stop-opacity="0.85"/>
      <stop offset="100%" stop-color="#6366f1" stop-opacity="0"/>
    </radialGradient>
    <radialGradient id="auroraViolet" cx="0.5" cy="0.5" r="0.5">
      <stop offset="0%" stop-color="#8b5cf6" stop-opacity="0.75"/>
      <stop offset="100%" stop-color="#8b5cf6" stop-opacity="0"/>
    </radialGradient>
    <radialGradient id="auroraPink" cx="0.5" cy="0.5" r="0.5">
      <stop offset="0%" stop-color="#ec4899" stop-opacity="0.65"/>
      <stop offset="100%" stop-color="#ec4899" stop-opacity="0"/>
    </radialGradient>
    <linearGradient id="wordmarkGrad" x1="0" y1="0" x2="1" y2="0">
      <stop offset="0%" stop-color="#06b6d4"/>
      <stop offset="40%" stop-color="#6366f1"/>
      <stop offset="70%" stop-color="#8b5cf6"/>
      <stop offset="100%" stop-color="#ec4899"/>
    </linearGradient>
    <linearGradient id="iconStroke" x1="0" y1="0" x2="1" y2="1">
      <stop offset="0%" stop-color="#06b6d4"/>
      <stop offset="100%" stop-color="#8b5cf6"/>
    </linearGradient>
    <filter id="glow" x="-50%" y="-50%" width="200%" height="200%">
      <feGaussianBlur stdDeviation="6" result="blur"/>
      <feMerge>
        <feMergeNode in="blur"/>
        <feMergeNode in="SourceGraphic"/>
      </feMerge>
    </filter>
    <filter id="noise" x="0" y="0" width="100%" height="100%">
      <feTurbulence type="fractalNoise" baseFrequency="0.9" numOctaves="2" seed="7"/>
      <feColorMatrix values="0 0 0 0 1  0 0 0 0 1  0 0 0 0 1  0 0 0 0.06 0"/>
    </filter>
  </defs>

  <rect width="1200" height="630" fill="url(#bgGrad)"/>

  <!-- Aurora upper-right -->
  <g opacity="0.9">
    <ellipse cx="1000" cy="100" rx="420" ry="300" fill="url(#auroraViolet)"/>
    <ellipse cx="1100" cy="220" rx="320" ry="240" fill="url(#auroraIndigo)"/>
    <ellipse cx="880" cy="40" rx="280" ry="200" fill="url(#auroraPink)"/>
  </g>

  <!-- Brand mark Z (upper-left) -->
  <g transform="translate(72,72)">
    <rect x="0" y="0" width="56" height="56" rx="14" fill="none" stroke="url(#wordmarkGrad)" stroke-width="2"/>
    <text x="28" y="40" font-family="system-ui, -apple-system, sans-serif" font-weight="800" font-size="34" text-anchor="middle" fill="url(#wordmarkGrad)">Z</text>
  </g>
  <text x="148" y="108" font-family="system-ui, -apple-system, sans-serif" font-weight="600" font-size="18" letter-spacing="4" fill="rgba(255,255,255,0.55)">ZENTROTECH</text>

  <!-- Eyebrow -->
  <text x="72" y="240" font-family="system-ui, -apple-system, sans-serif" font-weight="600" font-size="20" letter-spacing="6" fill="#06b6d4">SERVICES</text>

  <!-- Headline -->
  <text x="72" y="340" font-family="system-ui, -apple-system, sans-serif" font-weight="900" font-size="92" letter-spacing="-2" fill="#ffffff" filter="url(#glow)">AI Consultancy</text>

  <!-- Subhead -->
  <text x="72" y="396" font-family="system-ui, -apple-system, sans-serif" font-weight="500" font-size="30" fill="rgba(255,255,255,0.75)">Agentic systems  ·  Automation  ·  AI-native products</text>

  <!-- Six service icons row -->
  <g transform="translate(72,478)" stroke="url(#iconStroke)" stroke-width="2.5" fill="none" stroke-linecap="round" stroke-linejoin="round">
    <!-- 1. AI Agent (bot) -->
    <g transform="translate(0,0)">
      <rect x="6" y="14" width="52" height="40" rx="10" fill="rgba(99,102,241,0.08)"/>
      <circle cx="22" cy="34" r="4"/>
      <circle cx="42" cy="34" r="4"/>
      <line x1="32" y1="2" x2="32" y2="14"/>
      <circle cx="32" cy="2" r="2.5" fill="#ec4899" stroke="none"/>
    </g>
    <!-- 2. Automation (gears) -->
    <g transform="translate(96,0)">
      <circle cx="24" cy="32" r="14" fill="rgba(99,102,241,0.08)"/>
      <circle cx="24" cy="32" r="5"/>
      <line x1="24" y1="14" x2="24" y2="8"/>
      <line x1="24" y1="50" x2="24" y2="56"/>
      <line x1="6" y1="32" x2="0" y2="32"/>
      <line x1="42" y1="32" x2="48" y2="32"/>
      <circle cx="50" cy="14" r="8"/>
    </g>
    <!-- 3. AI Website (browser + spark) -->
    <g transform="translate(192,0)">
      <rect x="2" y="10" width="60" height="44" rx="6" fill="rgba(99,102,241,0.08)"/>
      <line x1="2" y1="22" x2="62" y2="22"/>
      <circle cx="10" cy="16" r="1.6" fill="#ec4899" stroke="none"/>
      <circle cx="16" cy="16" r="1.6" fill="#06b6d4" stroke="none"/>
      <path d="M32 30 l4 8 l8 4 l-8 4 l-4 8 l-4 -8 l-8 -4 l8 -4 z" fill="rgba(236,72,153,0.25)"/>
    </g>
    <!-- 4. Agentic Coding (brackets + cursor) -->
    <g transform="translate(288,0)">
      <rect x="2" y="10" width="60" height="44" rx="8" fill="rgba(99,102,241,0.08)"/>
      <polyline points="18,22 10,32 18,42"/>
      <polyline points="46,22 54,32 46,42"/>
      <line x1="36" y1="20" x2="28" y2="44"/>
    </g>
    <!-- 5. LLM Integration (chip) -->
    <g transform="translate(384,0)">
      <rect x="10" y="14" width="44" height="36" rx="6" fill="rgba(99,102,241,0.08)"/>
      <rect x="22" y="26" width="20" height="12" rx="2"/>
      <line x1="10" y1="22" x2="2" y2="22"/>
      <line x1="10" y1="32" x2="2" y2="32"/>
      <line x1="10" y1="42" x2="2" y2="42"/>
      <line x1="62" y1="22" x2="54" y2="22"/>
      <line x1="62" y1="32" x2="54" y2="32"/>
      <line x1="62" y1="42" x2="54" y2="42"/>
    </g>
    <!-- 6. Strategy (compass / target) -->
    <g transform="translate(480,0)">
      <circle cx="32" cy="32" r="22" fill="rgba(99,102,241,0.08)"/>
      <circle cx="32" cy="32" r="14"/>
      <circle cx="32" cy="32" r="5" fill="#ec4899" stroke="none"/>
      <line x1="32" y1="0" x2="32" y2="6"/>
      <line x1="32" y1="58" x2="32" y2="64"/>
      <line x1="0" y1="32" x2="6" y2="32"/>
      <line x1="58" y1="32" x2="64" y2="32"/>
    </g>
  </g>

  <!-- Bottom branding -->
  <text x="1128" y="545" text-anchor="end" font-family="system-ui, -apple-system, sans-serif" font-weight="500" font-size="18" fill="rgba(255,255,255,0.45)">zentrotech.ai / services</text>

  <rect width="1200" height="630" filter="url(#noise)" opacity="0.7"/>
</svg>
